# xmcd
#
# Track frame offsets:
#	150
#	13893
#	28070
#	42720
#	56370
#	69845
#	88255
#	101953
#	116008
#	130888
#	145650
#	161013
#
# Disc length: 2328 seconds
#
# Revision: 0
# Processed by: cddbd v1.5.1PL0 Copyright (c) Steve Scherf et al.
# Submitted via: dBpowerAMP V4.0
#
DISCID=ab09160c
DTITLE=Bergfeuer - Wilde Wasser
DYEAR=1900
DGENRE=National Folk
TTITLE0=Das Feuer der Berge
TTITLE1=Ich war noch nie in den Bergen
TTITLE2=Wilde Wasser
TTITLE3=Und Gott schuf die Berge
TTITLE4=Freunde wie Fels
TTITLE5=Da fiel ein Stern
TTITLE6=Fünf Uhr früh am Gipfelkreuz
TTITLE7=Mountain Man
TTITLE8=Auf der Spur des grossen Bären
TTITLE9=Ein Stern verglüht
TTITLE10=´s werd langsam Tag am Berg
TTITLE11=Und die Adler der Cordilleren
EXTD=
EXTT0=
EXTT1=
EXTT2=
EXTT3=
EXTT4=
EXTT5=
EXTT6=
EXTT7=
EXTT8=
EXTT9=
EXTT10=
EXTT11=
PLAYORDER=
